# xmcd CD database file
#
# Track frame offsets:
#	180
#	26537
#	54869
#	83289
#	85695
#	105287
#	129493
#	150013
#	175080
#	191173
#	211843
#
# Disc length: 3120 seconds
#
# Revision: 0
# Processed by: cddbd v1.5.2PL0 Copyright (c) Steve Scherf et al.
# Submitted via: CDex 1.70beta2
#
DISCID=6c0c2e0b
DTITLE=Her Favorite Food - Mahlzeit
DYEAR=1996
DGENRE=Jazz
TTITLE0=Carrots Are For Eating Only
TTITLE1=Ballade
TTITLE2=The Float
TTITLE3=I'm Wanted
TTITLE4=Bye Bye Berlin
TTITLE5=News From The Universe
TTITLE6=Interlude
TTITLE7='Round Corners
TTITLE8=Busy Waitress
TTITLE9=Spiel
TTITLE10=The Only Thing That Counts That Is To Know What Counts
EXTD=YEAR: 1996
EXTT0=
EXTT1=
EXTT2=
EXTT3=
EXTT4=
EXTT5=
EXTT6=
EXTT7=
EXTT8=
EXTT9=
EXTT10=
PLAYORDER=
